<?xml version="1.0" encoding="UTF-8" standalone="no"?>
<svg width="16px" height="16px" viewBox="0 0 16 16" version="1.1" xmlns="http://www.w3.org/2000/svg" xmlns:xlink="http://www.w3.org/1999/xlink">
    <!-- Generator: Sketch 46.2 (44496) - http://www.bohemiancoding.com/sketch -->
    <title>收起</title>
    <desc>Created with Sketch.</desc>
    <defs></defs>
    <g id="Page-1" stroke="none" stroke-width="1" fill="none" fill-rule="evenodd">
        <g id="Artboard" transform="translate(-93.000000, -27.000000)" fill-rule="nonzero" fill="#666666">
            <g id="收起" transform="translate(93.000000, 27.000000)">
                <path d="M8,13 C10.7614237,13 13,10.7614237 13,8 C13,5.23857625 10.7614237,3 8,3 C5.23857625,3 3,5.23857625 3,8 C3,10.7614237 5.23857625,13 8,13 Z M8,14 C4.6862915,14 2,11.3137085 2,8 C2,4.6862915 4.6862915,2 8,2 C11.3137085,2 14,4.6862915 14,8 C14,11.3137085 11.3137085,14 8,14 Z" id="Oval-3"></path>
                <path d="M5.81234752,6.1095656 C5.59671656,5.93706082 5.28207037,5.97202151 5.1095656,6.18765248 C4.93706082,6.40328344 4.97202151,6.71792963 5.18765248,6.8904344 L7.68765248,8.8904344 C7.8702618,9.03652187 8.1297382,9.03652187 8.31234752,8.8904344 L10.8123475,6.8904344 C11.0279785,6.71792963 11.0629392,6.40328344 10.8904344,6.18765248 C10.7179296,5.97202151 10.4032834,5.93706082 10.1876525,6.1095656 L8,7.85968758 L5.81234752,6.1095656 Z" id="Path-9" transform="translate(8.000000, 7.499991) scale(1, -1) translate(-8.000000, -7.499991) "></path>
            </g>
        </g>
    </g>
</svg>