<?xml version="1.0" encoding="UTF-8" standalone="no"?>
<svg width="16px" height="16px" viewBox="0 0 16 16" version="1.1" xmlns="http://www.w3.org/2000/svg" xmlns:xlink="http://www.w3.org/1999/xlink">
    <!-- Generator: Sketch 46.2 (44496) - http://www.bohemiancoding.com/sketch -->
    <title>展开</title>
    <desc>Created with Sketch.</desc>
    <defs></defs>
    <g id="Page-1" stroke="none" stroke-width="1" fill="none" fill-rule="evenodd">
        <g id="Artboard" transform="translate(-73.000000, -27.000000)" fill-rule="nonzero" fill="#666666">
            <g id="展开" transform="translate(73.000000, 27.000000)">
                <path d="M8,3 C5.23857625,3 3,5.23857625 3,8 C3,10.7614237 5.23857625,13 8,13 C10.7614237,13 13,10.7614237 13,8 C13,5.23857625 10.7614237,3 8,3 Z M8,2 C11.3137085,2 14,4.6862915 14,8 C14,11.3137085 11.3137085,14 8,14 C4.6862915,14 2,11.3137085 2,8 C2,4.6862915 4.6862915,2 8,2 Z" id="Rectangle-7"></path>
                <path d="M8,8.85968758 L5.81234752,7.1095656 C5.59671656,6.93706082 5.28207037,6.97202151 5.1095656,7.18765248 C4.93706082,7.40328344 4.97202151,7.71792963 5.18765248,7.8904344 L7.68765248,9.8904344 C7.8702618,10.0365219 8.1297382,10.0365219 8.31234752,9.8904344 L10.8123475,7.8904344 C11.0279785,7.71792963 11.0629392,7.40328344 10.8904344,7.18765248 C10.7179296,6.97202151 10.4032834,6.93706082 10.1876525,7.1095656 L8,8.85968758 Z" id="Path-9"></path>
            </g>
        </g>
    </g>
</svg>