<?xml version="1.0" encoding="utf-8"?>
<!-- Generator: Adobe Illustrator 21.1.0, SVG Export Plug-In . SVG Version: 6.00 Build 0)  -->
<svg version="1.1" id="图层_1" xmlns="http://www.w3.org/2000/svg" xmlns:xlink="http://www.w3.org/1999/xlink" x="0px" y="0px"
	 viewBox="0 0 24 24" style="enable-background:new 0 0 24 24;" xml:space="preserve">
<style type="text/css">
	.st0{fill:#0183FF;}
</style>
<title  id="simpleicons-jsfiddle-icon">JSFiddle icon</title>
<g>
	<path class="st0" d="M21.1,11.3L21.1,11.3c0-0.1,0-0.3,0-0.4c0-3.9-3.2-7-7.1-7c0,0,0,0,0,0c-2.7,0-5.2,1.6-6.4,4
		c-0.6-0.4-1.3-0.7-2-0.7c-1.8,0-3.3,1.5-3.3,3.2c0,0.3,0.1,0.7,0.2,1C0.9,12.2,0,13.7,0,15.4c0,2.6,2.1,4.7,4.8,4.8H19
		c0.1,0,0.2,0,0.3,0c2.6,0,4.7-2.1,4.7-4.7C24,13.7,22.8,12,21.1,11.3z M19.3,19.2L19.3,19.2c-0.1,0-0.2,0-0.3,0l-14.2,0
		c-2.1,0-3.8-1.7-3.8-3.8c0-1.3,0.7-2.6,1.9-3.2C3.3,12,3.5,11.5,3.3,11c-0.1-0.2-0.1-0.4-0.1-0.7c0-1.2,1-2.2,2.3-2.2
		c0.5,0,1,0.2,1.4,0.5c0.2,0.1,0.4,0.2,0.6,0.2c0.1,0,0.2,0,0.2,0C8,8.7,8.3,8.5,8.4,8.2c1-2.1,3.2-3.4,5.5-3.4h0
		c3.4,0,6.1,2.7,6.1,6c0,0.1,0,0.2,0,0.3c0,0.3,0.1,0.5,0.3,0.8c0.1,0.1,0.2,0.2,0.4,0.3c1.4,0.6,2.2,1.9,2.2,3.3
		C23,17.6,21.3,19.2,19.3,19.2z"/>
	<path class="st0" d="M18.2,12.2c-0.6-0.6-1.4-0.9-2.4-0.9c-1.1,0-2,0.3-2.8,1.1l0.1,0.1l1,1.1c0.6-0.6,1.1-0.8,1.7-0.8
		c0.7,0,1.3,0.4,1.5,1c0,0.1,0.1,0.3,0.1,0.4l0,0.1c0,0.3-0.2,0.6-0.4,0.9c-0.3,0.3-0.7,0.4-1.1,0.4c-0.5,0-1.1-0.3-1.7-0.8
		c-0.2-0.2-0.4-0.4-0.6-0.7l-1.1-1.3c-0.2-0.2-0.4-0.5-0.6-0.6c-0.9-0.8-1.8-1.1-2.8-1.1c-1,0-1.8,0.3-2.5,0.9c-0.6,0.6-1,1.3-1,2.2
		c0,0.2,0,0.4,0.1,0.7c0.1,0.6,0.4,1.1,0.9,1.6c0.6,0.6,1.5,0.8,2.5,0.8c1.1,0,1.9-0.3,2.8-1.2l-0.1-0.1l-1-1.1
		c-0.6,0.6-1.1,0.8-1.7,0.8c-0.4,0-0.8-0.1-1.1-0.4l0,0c-0.3-0.3-0.4-0.6-0.4-1c0-0.4,0.2-0.7,0.4-1c0.2-0.2,0.4-0.3,0.6-0.3
		C8.7,13,8.8,13,9,13c0.5,0,1.2,0.2,1.7,0.8c0.2,0.2,0.4,0.4,0.6,0.7l1.1,1.3c0.2,0.2,0.4,0.5,0.6,0.7c0.8,0.7,1.8,1.1,2.8,1.1
		c0.3,0,0.5,0,0.7,0c0.6-0.1,1.2-0.4,1.7-0.8c0.5-0.4,0.8-0.9,0.9-1.6c0-0.2,0.1-0.4,0.1-0.6C19.2,13.5,18.9,12.8,18.2,12.2
		L18.2,12.2z"/>
</g>
</svg>
